<?xml version="1.0" encoding="UTF-8" standalone="no"?><!DOCTYPE svg PUBLIC "-//W3C//DTD SVG 1.1//EN" "http://www.w3.org/Graphics/SVG/1.1/DTD/svg11.dtd"><svg width="100%" height="100%" viewBox="0 0 1696 1610" version="1.1" xmlns="http://www.w3.org/2000/svg" xmlns:xlink="http://www.w3.org/1999/xlink" xml:space="preserve" xmlns:serif="http://www.serif.com/" style="fill-rule:evenodd;clip-rule:evenodd;stroke-linejoin:round;stroke-miterlimit:2;"><rect id="Artboard1" x="-0" y="0" width="1695.75" height="1609.59" style="fill:none;"/><g id="Working"><g id="Spine"><path d="M135.264,685.078c-4.097,2.244 -8.915,3.626 -11.909,3.529c-34.883,-1.125 -34.662,-1.021 -37.67,-1.212c-26.488,-1.705 -11.255,-58.992 -9.925,-63.996c48.787,-183.488 138.979,-254.871 192.683,-304.642c124.992,-115.829 336.858,-152.25 357.9,-135.279c52.092,42.021 -255.954,6.729 -420.842,318.867c-74.496,141.02 -35.166,163.525 -70.237,182.733Z" style="fill:url(#_Linear1);stroke:#000;stroke-width:0.42px;"/><path d="M85.517,728.996c4.262,-0.245 48.495,-2.863 54.468,-0.989c11.232,4.813 8.7,13.192 11.096,45.205c3.144,33.83 10.635,73.634 8.687,84.236c-1.515,8.25 -7.349,13.636 -15.892,19.976c-2.791,1.325 -5.579,2.65 -8.366,3.979c-64.171,25.603 -68.546,-2.893 -69.295,-7.005c-0.785,-4.307 -12.463,-106.204 -8.247,-124.987c6.892,-21.2 21.327,-20.059 27.549,-20.415Z" style="fill:url(#_Linear2);stroke:#000;stroke-width:0.42px;"/><path d="M156.514,910.62c29.629,-7.859 39.802,35.364 64.19,83.876c33.402,66.445 30.847,76.304 28.064,79.657c-13.18,19.174 -52.592,54.3 -71.458,50.796c-27.936,-12.824 -34.747,-47.986 -64.188,-108.307c-31.967,-65.487 -27.421,-87.235 43.392,-106.022Z" style="fill:url(#_Linear3);stroke:#000;stroke-width:0.42px;"/><path d="M438.801,1232.66c8.687,18.56 -31.196,67.373 -38.111,76.218c-6.041,6.437 -29.655,48.482 -106.939,-30.476c-53.591,-54.754 -87.012,-87.063 -84.237,-108.879c1.541,-12.167 36.412,-45.2 40.075,-48.667c39.446,-37.371 48.358,-18.658 86.225,19.629c32.896,33.254 94.803,76.046 102.987,92.175Z" style="fill:url(#_Linear4);stroke:#000;stroke-width:0.42px;"/><path d="M623.147,1446.32c-51.725,-10.421 -88.029,-18.896 -170.012,-61.192c-50.559,-26.083 18.962,-138.383 57.112,-122.633c133.205,56.16 142.063,48.259 170.329,66.737c11.932,15.965 10.488,130.788 -57.429,117.088Z" style="fill:url(#_Linear5);stroke:#000;stroke-width:0.42px;"/><path d="M844.176,1471.44c-26.287,-0.075 -89.512,4.767 -111.1,-11.546c-4.979,-3.758 -10.064,-8.351 -2.537,-77.941c5.523,-51.073 47.625,-42.111 72.004,-41.932c138.721,1.013 164.762,-12.202 176.558,46.107c17.825,88.104 -22.125,84.133 -134.925,85.312Z" style="fill:url(#_Linear6);stroke:#000;stroke-width:0.42px;"/><path d="M1061.11,1317.51c132.617,-44.537 133.692,-43.682 144.367,-38.137c27.108,20.854 27.83,41.198 15.109,59.931c-24.302,35.786 -97.66,65.691 -129.851,82.035c-65.204,33.109 -89.488,-88.075 -41.925,-100.35c9.58,-2.375 9.084,-2.399 12.3,-3.479Z" style="fill:url(#_Linear7);stroke:#000;stroke-width:0.42px;"/><ellipse cx="1336.28" cy="1211.18" rx="39.563" ry="39.384" style="fill:url(#_Linear8);stroke:#000;stroke-width:0.42px;stroke-linecap:round;stroke-miterlimit:1.5;"/></g><g id="Dots-Provenance" serif:id="Dots Provenance"><path d="M301.579,581.775c4.65,0.271 7.544,0.536 12.194,0.807c-82.245,228.628 116.168,616.212 609.03,644.918c24.417,-3.471 18.155,5.417 -7.738,12.979c-520.238,-30.506 -698.356,-445.156 -613.486,-658.704Z" style="fill:url(#_Linear9);stroke:#000;stroke-width:0.42px;"/><circle cx="956.811" cy="1232.18" r="51.367" style="fill:url(#_Linear10);stroke:#000;stroke-width:0.42px;stroke-linecap:round;stroke-miterlimit:1.5;"/><circle cx="611.209" cy="1160.89" r="41.669" style="fill:url(#_Linear11);stroke:#000;stroke-width:0.42px;stroke-linecap:round;stroke-miterlimit:1.5;"/><circle cx="406.403" cy="1002.4" r="51.373" style="fill:url(#_Linear12);stroke:#000;stroke-width:0.42px;stroke-linecap:round;stroke-miterlimit:1.5;"/><circle cx="301.579" cy="780.511" r="50.528" style="fill:url(#_Linear13);stroke:#000;stroke-width:0.42px;stroke-linecap:round;stroke-miterlimit:1.5;"/><circle cx="313.773" cy="548.01" r="51.463" style="fill:url(#_Linear14);stroke:#000;stroke-width:0.42px;stroke-linecap:round;stroke-miterlimit:1.5;"/><circle cx="416.684" cy="409.762" r="40.116" style="fill:url(#_Linear15);stroke:#000;stroke-width:0.42px;stroke-linecap:round;stroke-miterlimit:1.5;"/></g><circle id="Eye" cx="1154.73" cy="721.813" r="294.91" style="fill:url(#_Linear16);stroke:#000;stroke-width:0.42px;stroke-linecap:round;stroke-miterlimit:1.5;"/><g id="Eye-Highlights" serif:id="Eye Highlights"><path id="Edge-Flash" serif:id="Edge Flash" d="M1170.16,459.992c35.659,1.866 76.295,7.213 111.678,26.502c76.334,41.614 145.125,120.143 135.903,267.647c-7.658,122.503 -124.845,229.375 -229.448,234.417c-53.451,2.576 -94.342,-3.554 -102.384,-11.689c-6.481,-2.123 1.699,5.028 55.935,4.869c153.301,-0.448 235.935,-140.308 245.137,-228.733c3.649,-35.056 15.869,-209.212 -153.825,-271.128c-32.53,-11.869 -24.902,-8.165 -62.996,-21.885Z" style="fill:url(#_Linear17);"/><path id="Main-Flash" serif:id="Main Flash" d="M1009.5,553.434c39.029,-32.949 95.331,-39.019 117.913,-19.466c26.637,23.065 26.033,73.741 -15.872,121.503c-36.209,41.273 -102.055,44.764 -131.668,17.267c-23.32,-21.655 -19.729,-77.637 29.627,-119.304Z" style="fill:#f3f6f7;"/><g id="Graph-Pupil" serif:id="Graph Pupil"><path d="M1314.49,729.142c3.662,-20.149 6.087,-49.951 0.856,-75.443c-5.781,-28.175 -19.25,-52.098 -29.688,-63.495c-3.477,-3.796 -1.488,-5.081 1.613,-0.76c2.596,3.617 24.816,26.646 32.319,63.044c4.611,22.366 -0.422,50.361 -3.984,76.518c-0.865,6.352 -1.947,4.707 -1.116,0.136Z" style="fill:url(#_Linear18);"/><path d="M970.127,767.956c3.745,67.375 48.581,94.024 54.827,95.677c3.626,0.96 2.812,-1.862 2.179,-2.459c-45.019,-42.427 -54.472,-93.048 -54.472,-93.048" style="fill:url(#_Linear19);"/><path d="M1174.12,750.392c3.05,-5.386 89.027,-147.595 91.089,-152.05c2.061,-4.455 2.775,-2.433 1.799,0.561c-0.976,2.995 -92.661,152.267 -92.661,152.267c0,0 -3.277,4.608 -0.227,-0.778Z" style="fill:url(#_Linear20);"/><path d="M1174.35,749.293c4.68,-0.181 124.411,-10.445 130.233,-10.717c0.817,1.04 0.62,-0.036 0.225,0.902c-3.503,1.006 -130.458,10.914 -130.458,10.914c0,-0 -0.512,-0.236 0,-1.099Z" style="fill:url(#_Linear21);"/><path d="M1037.09,863.639c3.05,-5.385 134.97,-108.792 137.032,-113.247c2.061,-4.455 2.674,-2.995 1.698,-0c-0.976,2.995 -143.409,117.373 -143.409,117.373c0,-0 1.629,1.26 4.679,-4.126Z" style="fill:url(#_Linear22);"/><path d="M990.114,748.438c4.679,-0.181 180.335,2.612 186.157,2.341c0.818,1.04 0.395,-0.196 -0,0.742c-3.503,1.005 -185.718,-2.228 -185.718,-2.228c-0,0 -0.951,0.008 -0.439,-0.855Z" style="fill:#f3f6f7;"/><circle id="Upper-Right" serif:id="Upper Right" cx="1274.01" cy="589.444" r="16.164" style="fill:#b8d7e7;"/><circle id="Lower-Right" serif:id="Lower Right" cx="1306.33" cy="737.977" r="16.164" style="fill:#b8d7e7;"/><g id="Center"><circle cx="1174.35" cy="749.293" r="30.24" style="fill:#ebebeb;"/><circle cx="1174.35" cy="749.293" r="28.797" style="fill:#001429;"/></g><circle id="Upper-Left" serif:id="Upper Left" cx="975.987" cy="748.574" r="23.31" style="fill:#ebebeb;"/><circle id="Lower-Left" serif:id="Lower Left" cx="1034.64" cy="865.844" r="11.8" style="fill:#b8d7e7;"/></g></g><path id="Head" d="M570.21,682.228c-10.387,103.709 24.513,164.949 43.504,196.408c78.211,149.743 285.921,205.309 301.521,210.738c33.67,11.291 100.012,18.95 104.266,19.996c0,-0 91.608,4.635 170.413,-3.105c3.05,-0.458 62.093,-6.83 128.725,-29.758c43.654,-15.314 44.659,-16.454 83.991,-39.992c4.896,-3.37 79.712,-40.668 138.788,-124.087c141.837,-210.808 19.017,-341.283 -1.742,-396.833c-28.262,-75.646 145.934,108.841 85.7,287.975c-54.271,161.408 -216.14,252.391 -231.291,261.72c-69.638,45.821 -176.055,62.846 -192.084,65.409c-66.82,11.749 -135.076,10.079 -202.314,9.282c-53.31,-2.112 -338.909,-24.551 -463.786,-241.228c-21.133,-35.338 -33.912,-72.988 -36.162,-79.608c-1.171,-4.075 -6.739,-26.21 -10.517,-53.596c-0.146,-20.692 -6.408,-57.379 11.279,-117.388c6.142,-20.837 40.254,-136.571 167.625,-213.646c130.846,-79.175 58.813,-190.395 167.013,-286.575c77.283,-68.691 291.687,-34.045 462.058,68.959c85.975,51.975 190.571,161.721 201.292,194.354c11.825,36.008 -38.167,-15.242 -40.642,-17.783c-15.096,-15.475 -110.396,-113.175 -213.908,-165.067c-335.867,-168.375 -445.542,10.575 -421.709,75.021c21.45,58.004 191.38,32.4 108.792,47.6c-180.296,33.183 -336.271,165.896 -360.812,331.204Z" style="fill:url(#_Linear23);stroke:#000;stroke-width:0.42px;"/></g><defs><linearGradient id="_Linear1" x1="0" y1="0" x2="1" y2="0" gradientUnits="userSpaceOnUse" gradientTransform="matrix(412.522,-412.661,412.661,412.522,18.0205,605.608)"><stop offset="0" style="stop-color:#f95c13;stop-opacity:0.98"/><stop offset="1" style="stop-color:#fdbc36;stop-opacity:0.98"/></linearGradient><linearGradient id="_Linear2" x1="0" y1="0" x2="1" y2="0" gradientUnits="userSpaceOnUse" gradientTransform="matrix(-1346.29,-625.556,625.556,-1346.29,1331.58,1391.01)"><stop offset="0" style="stop-color:#a1dce8;stop-opacity:1"/><stop offset="1" style="stop-color:#0b4e76;stop-opacity:1"/></linearGradient><linearGradient id="_Linear3" x1="0" y1="0" x2="1" y2="0" gradientUnits="userSpaceOnUse" gradientTransform="matrix(-1346.29,-625.556,625.556,-1346.29,1331.58,1391.01)"><stop offset="0" style="stop-color:#a1dce8;stop-opacity:1"/><stop offset="1" style="stop-color:#0b4e76;stop-opacity:1"/></linearGradient><linearGradient id="_Linear4" x1="0" y1="0" x2="1" y2="0" gradientUnits="userSpaceOnUse" gradientTransform="matrix(-1346.29,-625.556,625.556,-1346.29,1331.58,1391.01)"><stop offset="0" style="stop-color:#a1dce8;stop-opacity:1"/><stop offset="1" style="stop-color:#0b4e76;stop-opacity:1"/></linearGradient><linearGradient id="_Linear5" x1="0" y1="0" x2="1" y2="0" gradientUnits="userSpaceOnUse" gradientTransform="matrix(-1346.29,-625.556,625.556,-1346.29,1331.58,1391.01)"><stop offset="0" style="stop-color:#a1dce8;stop-opacity:1"/><stop offset="1" style="stop-color:#0b4e76;stop-opacity:1"/></linearGradient><linearGradient id="_Linear6" x1="0" y1="0" x2="1" y2="0" gradientUnits="userSpaceOnUse" gradientTransform="matrix(-1346.29,-625.556,625.556,-1346.29,1331.58,1391.01)"><stop offset="0" style="stop-color:#a1dce8;stop-opacity:1"/><stop offset="1" style="stop-color:#0b4e76;stop-opacity:1"/></linearGradient><linearGradient id="_Linear7" x1="0" y1="0" x2="1" y2="0" gradientUnits="userSpaceOnUse" gradientTransform="matrix(-1346.29,-625.556,625.556,-1346.29,1331.58,1391.01)"><stop offset="0" style="stop-color:#a1dce8;stop-opacity:1"/><stop offset="1" style="stop-color:#0b4e76;stop-opacity:1"/></linearGradient><linearGradient id="_Linear8" x1="0" y1="0" x2="1" y2="0" gradientUnits="userSpaceOnUse" gradientTransform="matrix(-1346.29,-625.556,625.556,-1346.29,1331.58,1391.01)"><stop offset="0" style="stop-color:#a1dce8;stop-opacity:1"/><stop offset="1" style="stop-color:#0b4e76;stop-opacity:1"/></linearGradient><linearGradient id="_Linear9" x1="0" y1="0" x2="1" y2="0" gradientUnits="userSpaceOnUse" gradientTransform="matrix(-699.235,-797.034,797.034,-699.235,1023.93,1213.18)"><stop offset="0" style="stop-color:#0c5887;stop-opacity:1"/><stop offset="0.6" style="stop-color:#0a4c74;stop-opacity:1"/><stop offset="0.81" style="stop-color:#052f49;stop-opacity:1"/><stop offset="1" style="stop-color:#00111c;stop-opacity:1"/></linearGradient><linearGradient id="_Linear10" x1="0" y1="0" x2="1" y2="0" gradientUnits="userSpaceOnUse" gradientTransform="matrix(-699.235,-797.034,797.034,-699.235,1023.93,1213.18)"><stop offset="0" style="stop-color:#0c5887;stop-opacity:1"/><stop offset="0.6" style="stop-color:#0a4c74;stop-opacity:1"/><stop offset="0.81" style="stop-color:#052f49;stop-opacity:1"/><stop offset="1" style="stop-color:#00111c;stop-opacity:1"/></linearGradient><linearGradient id="_Linear11" x1="0" y1="0" x2="1" y2="0" gradientUnits="userSpaceOnUse" gradientTransform="matrix(-699.235,-797.034,797.034,-699.235,1023.93,1213.18)"><stop offset="0" style="stop-color:#0c5887;stop-opacity:1"/><stop offset="0.6" style="stop-color:#0a4c74;stop-opacity:1"/><stop offset="0.81" style="stop-color:#052f49;stop-opacity:1"/><stop offset="1" style="stop-color:#00111c;stop-opacity:1"/></linearGradient><linearGradient id="_Linear12" x1="0" y1="0" x2="1" y2="0" gradientUnits="userSpaceOnUse" gradientTransform="matrix(-699.235,-797.034,797.034,-699.235,1023.93,1213.18)"><stop offset="0" style="stop-color:#0c5887;stop-opacity:1"/><stop offset="0.6" style="stop-color:#0a4c74;stop-opacity:1"/><stop offset="0.81" style="stop-color:#052f49;stop-opacity:1"/><stop offset="1" style="stop-color:#00111c;stop-opacity:1"/></linearGradient><linearGradient id="_Linear13" x1="0" y1="0" x2="1" y2="0" gradientUnits="userSpaceOnUse" gradientTransform="matrix(-699.235,-797.034,797.034,-699.235,1023.93,1213.18)"><stop offset="0" style="stop-color:#0c5887;stop-opacity:1"/><stop offset="0.6" style="stop-color:#0a4c74;stop-opacity:1"/><stop offset="0.81" style="stop-color:#052f49;stop-opacity:1"/><stop offset="1" style="stop-color:#00111c;stop-opacity:1"/></linearGradient><linearGradient id="_Linear14" x1="0" y1="0" x2="1" y2="0" gradientUnits="userSpaceOnUse" gradientTransform="matrix(-699.235,-797.034,797.034,-699.235,1023.93,1213.18)"><stop offset="0" style="stop-color:#0c5887;stop-opacity:1"/><stop offset="0.6" style="stop-color:#0a4c74;stop-opacity:1"/><stop offset="0.81" style="stop-color:#052f49;stop-opacity:1"/><stop offset="1" style="stop-color:#00111c;stop-opacity:1"/></linearGradient><linearGradient id="_Linear15" x1="0" y1="0" x2="1" y2="0" gradientUnits="userSpaceOnUse" gradientTransform="matrix(-699.235,-797.034,797.034,-699.235,1023.93,1213.18)"><stop offset="0" style="stop-color:#0c5887;stop-opacity:1"/><stop offset="0.6" style="stop-color:#0a4c74;stop-opacity:1"/><stop offset="0.81" style="stop-color:#052f49;stop-opacity:1"/><stop offset="1" style="stop-color:#00111c;stop-opacity:1"/></linearGradient><linearGradient id="_Linear16" x1="0" y1="0" x2="1" y2="0" gradientUnits="userSpaceOnUse" gradientTransform="matrix(-101.845,698.29,-698.29,-101.845,1247.39,426.903)"><stop offset="0" style="stop-color:#020b2b;stop-opacity:1"/><stop offset="1" style="stop-color:#040e32;stop-opacity:1"/></linearGradient><linearGradient id="_Linear17" x1="0" y1="0" x2="1" y2="0" gradientUnits="userSpaceOnUse" gradientTransform="matrix(-201.089,90.6803,-90.6803,-201.089,1514.18,765.457)"><stop offset="0" style="stop-color:#2d497b;stop-opacity:0.2"/><stop offset="1" style="stop-color:#cadfea;stop-opacity:0.76"/></linearGradient><linearGradient id="_Linear18" x1="0" y1="0" x2="1" y2="0" gradientUnits="userSpaceOnUse" gradientTransform="matrix(-24.9229,-63.8743,63.8743,-24.9229,1327.55,692.927)"><stop offset="0" style="stop-color:#b8d7e7;stop-opacity:0.26"/><stop offset="1" style="stop-color:#b8d7e7;stop-opacity:0.11"/></linearGradient><linearGradient id="_Linear19" x1="0" y1="0" x2="1" y2="0" gradientUnits="userSpaceOnUse" gradientTransform="matrix(-10.255,37.3423,-37.3423,-10.255,986.242,790.769)"><stop offset="0" style="stop-color:#ebebeb;stop-opacity:0.19"/><stop offset="0.52" style="stop-color:#dfe6ea;stop-opacity:0.23"/><stop offset="1" style="stop-color:#b8d7e7;stop-opacity:0.35"/></linearGradient><linearGradient id="_Linear20" x1="0" y1="0" x2="1" y2="0" gradientUnits="userSpaceOnUse" gradientTransform="matrix(93.6316,-54.3098,54.3098,93.6316,1188.49,738.576)"><stop offset="0" style="stop-color:#f3f6f7;stop-opacity:1"/><stop offset="1" style="stop-color:#b8d7e7;stop-opacity:1"/></linearGradient><linearGradient id="_Linear21" x1="0" y1="0" x2="1" y2="0" gradientUnits="userSpaceOnUse" gradientTransform="matrix(93.6316,-54.3098,54.3098,93.6316,1188.49,738.576)"><stop offset="0" style="stop-color:#f3f6f7;stop-opacity:1"/><stop offset="1" style="stop-color:#b8d7e7;stop-opacity:1"/></linearGradient><linearGradient id="_Linear22" x1="0" y1="0" x2="1" y2="0" gradientUnits="userSpaceOnUse" gradientTransform="matrix(-127.435,68.3125,-68.3125,-127.435,1154.73,753.005)"><stop offset="0" style="stop-color:#f3f6f7;stop-opacity:1"/><stop offset="1" style="stop-color:#b8d7e7;stop-opacity:1"/></linearGradient><linearGradient id="_Linear23" x1="0" y1="0" x2="1" y2="0" gradientUnits="userSpaceOnUse" gradientTransform="matrix(502.015,1119.9,-1119.9,502.015,741.892,112.288)"><stop offset="0" style="stop-color:#fed13e;stop-opacity:0.98"/><stop offset="0.19" style="stop-color:#fca02c;stop-opacity:0.98"/><stop offset="0.41" style="stop-color:#fa701b;stop-opacity:0.98"/><stop offset="1" style="stop-color:#f95b13;stop-opacity:0.98"/></linearGradient></defs></svg>